<svg width="900" height="183" viewBox="0 0 900 183" fill="none" xmlns="http://www.w3.org/2000/svg">
<path d="M143.859 48.8967C143.859 66.4996 130.135 80.7698 113.206 80.7698C96.2769 80.7698 82.5527 66.4996 82.5527 48.8967C82.5527 31.2934 96.2769 17.0232 113.206 17.0232C130.135 17.0232 143.859 31.2934 143.859 48.8967Z" fill="#5655ED"/>
<path d="M173.119 128.58C156.399 144.539 138.286 153.209 113.206 153.209C88.1261 153.209 70.0132 144.539 53.2932 128.58C42.3891 118.172 37.1736 109.246 31.0001 95.2579C23.0525 77.2494 22.6499 51.08 22.6403 50.3603C22.6401 50.3382 22.6401 50.3326 22.6403 50.3109C22.6698 47.5157 26.2676 46.5067 27.6896 48.8959C54.7344 94.3331 74.5242 108.507 113.206 111.195C151.888 108.507 171.678 94.3331 198.723 48.8959C200.145 46.5067 203.743 47.5157 203.772 50.3109C203.772 50.3335 203.772 50.3377 203.772 50.3603C203.763 51.08 203.36 77.2494 195.412 95.2579C189.239 109.246 184.023 118.172 173.119 128.58Z" fill="#5655ED"/>
<path d="M358.714 23.0201H384.825V103.421C384.825 112.448 382.674 120.348 378.373 127.118C374.112 133.889 368.141 139.169 360.463 142.957C352.785 146.705 343.84 148.579 333.628 148.579C323.377 148.579 314.412 146.705 306.733 142.957C299.055 139.169 293.085 133.889 288.824 127.118C284.562 120.348 282.432 112.448 282.432 103.421V23.0201H308.543V101.185C308.543 105.9 309.568 110.091 311.618 113.758C313.708 117.426 316.643 120.307 320.422 122.403C324.201 124.499 328.603 125.547 333.628 125.547C338.694 125.547 343.096 124.499 346.835 122.403C350.613 120.307 353.528 117.426 355.578 113.758C357.669 110.091 358.714 105.9 358.714 101.185V23.0201ZM405.825 181.646V53.9714H431.151V69.5681H432.297C433.422 67.0695 435.052 64.5305 437.183 61.9511C439.353 59.3316 442.167 57.1552 445.623 55.4222C449.121 53.6493 453.464 52.7624 458.652 52.7624C465.406 52.7624 471.634 54.5358 477.344 58.0821C483.054 61.5885 487.617 66.8882 491.03 73.981C494.448 81.0337 496.159 89.8799 496.159 100.519C496.159 110.877 494.49 119.622 491.154 126.756C487.855 133.849 483.355 139.229 477.645 142.896C471.978 146.523 465.627 148.337 458.588 148.337C453.604 148.337 449.363 147.511 445.865 145.858C442.409 144.206 439.573 142.131 437.362 139.632C435.154 137.093 433.464 134.534 432.297 131.955H431.516V181.646H405.825ZM430.972 100.399C430.972 105.92 431.737 110.736 433.265 114.847C434.789 118.957 437.001 122.161 439.896 124.458C442.791 126.715 446.306 127.844 450.45 127.844C454.631 127.844 458.168 126.695 461.063 124.398C463.958 122.061 466.149 118.836 467.635 114.726C469.163 110.575 469.927 105.799 469.927 100.399C469.927 95.0383 469.184 90.3233 467.694 86.2526C466.208 82.1824 464.018 78.9986 461.122 76.7013C458.227 74.4044 454.67 73.2558 450.45 73.2558C446.268 73.2558 442.732 74.364 439.837 76.5804C436.98 78.7973 434.789 81.9406 433.265 86.0109C431.737 90.0816 430.972 94.8775 430.972 100.399ZM538.972 23.0201V146.826H513.284V23.0201H538.972ZM559.549 146.826V53.9714H585.242V146.826H559.549ZM572.455 42.002C568.638 42.002 565.361 40.7325 562.627 38.1936C559.931 35.6143 558.586 32.5312 558.586 28.9444C558.586 25.3979 559.931 22.3552 562.627 19.8162C565.361 17.2369 568.638 15.9473 572.455 15.9473C576.276 15.9473 579.532 17.2369 582.223 19.8162C584.957 22.3552 586.324 25.3979 586.324 28.9444C586.324 32.5312 584.957 35.6143 582.223 38.1936C579.532 40.7325 576.276 42.002 572.455 42.002ZM655.629 53.9714V73.3162H598.462V53.9714H655.629ZM611.546 146.826V47.2613C611.546 40.531 612.853 34.9493 615.468 30.5162C618.121 26.083 621.738 22.7582 626.319 20.5416C630.904 18.325 636.109 17.2167 641.938 17.2167C645.877 17.2167 649.477 17.519 652.733 18.1235C656.028 18.7281 658.481 19.2721 660.09 19.7558L655.505 39.1003C654.504 38.7779 653.255 38.4757 651.77 38.1936C650.322 37.9114 648.832 37.7704 647.308 37.7704C643.525 37.7704 640.893 38.657 639.407 40.4303C637.917 42.1632 637.174 44.6014 637.174 47.7452V146.826H611.546ZM720.59 53.9714V73.3162H664.807V53.9714H720.59ZM677.471 31.7252H703.163V118.293C703.163 120.67 703.524 122.524 704.246 123.854C704.971 125.144 705.973 126.05 707.26 126.574C708.588 127.098 710.117 127.36 711.845 127.36C713.05 127.36 714.256 127.26 715.462 127.058C716.667 126.816 717.593 126.635 718.238 126.514L722.275 145.677C720.989 146.08 719.18 146.543 716.85 147.067C714.519 147.632 711.683 147.974 708.346 148.095C702.157 148.337 696.727 147.511 692.066 145.617C687.443 143.722 683.843 140.78 681.27 136.79C678.697 132.801 677.432 127.763 677.471 121.678V31.7252ZM778.538 148.639C769.012 148.639 760.81 146.705 753.937 142.836C747.102 138.926 741.833 133.405 738.136 126.272C734.438 119.098 732.587 110.615 732.587 100.822C732.587 91.2702 734.438 82.8876 738.136 75.6735C741.833 68.4599 747.042 62.838 753.754 58.8077C760.508 54.7775 768.43 52.7624 777.515 52.7624C783.624 52.7624 789.312 53.7497 794.581 55.7248C799.888 57.6591 804.511 60.5807 808.45 64.4901C812.428 68.3995 815.523 73.3162 817.735 79.2403C819.946 85.1244 821.05 92.0159 821.05 99.9151V106.988H742.839V91.0285H796.869C796.869 87.3208 796.067 84.0362 794.458 81.175C792.849 78.3134 790.62 76.0766 787.763 74.4649C784.953 72.8123 781.675 71.9863 777.935 71.9863C774.038 71.9863 770.578 72.8928 767.564 74.7066C764.588 76.4796 762.257 78.8777 760.568 81.9002C758.882 84.8827 758.016 88.2073 757.974 91.875V107.048C757.974 111.643 758.819 115.612 760.508 118.957C762.236 122.302 764.669 124.882 767.806 126.695C770.939 128.509 774.658 129.416 778.963 129.416C781.815 129.416 784.43 129.012 786.799 128.206C789.172 127.4 791.202 126.191 792.891 124.579C794.581 122.967 795.867 120.992 796.75 118.655L820.511 120.227C819.301 125.95 816.83 130.947 813.09 135.219C809.393 139.45 804.608 142.755 798.741 145.133C792.913 147.47 786.175 148.639 778.538 148.639ZM837.815 146.826V53.9714H862.722V70.1725H863.686C865.375 64.4097 868.207 60.0568 872.189 57.1152C876.167 54.1327 880.752 52.6415 885.939 52.6415C887.226 52.6415 888.61 52.7224 890.1 52.8832C891.586 53.0445 892.893 53.2662 894.018 53.5484V76.3991C892.813 76.0366 891.144 75.714 889.013 75.4318C886.882 75.1496 884.933 75.0088 883.163 75.0088C879.385 75.0088 876.005 75.8348 873.034 77.4874C870.096 79.0995 867.765 81.3563 866.038 84.2579C864.348 87.1595 863.503 90.5046 863.503 94.2927V146.826H837.815Z" fill="#050D22"/>
</svg>
