<svg width="315" height="64" viewBox="0 0 315 64" fill="none" xmlns="http://www.w3.org/2000/svg">
<path d="M50.3509 17.1006C50.3509 23.2568 45.5474 28.2475 39.6221 28.2475C33.697 28.2475 28.8936 23.2568 28.8936 17.1006C28.8936 10.9443 33.697 5.95361 39.6221 5.95361C45.5474 5.95361 50.3509 10.9443 50.3509 17.1006Z" fill="#5655ED"/>
<path d="M60.5915 44.9678C54.7395 50.5492 48.3998 53.5813 39.6219 53.5813C30.8439 53.5813 24.5044 50.5492 18.6524 44.9678C14.836 41.3277 13.0105 38.2063 10.8498 33.3142C8.06816 27.0161 7.92726 17.864 7.9239 17.6123C7.9238 17.6045 7.92381 17.6026 7.92389 17.595C7.93421 16.6175 9.19344 16.2646 9.69114 17.1001C19.1568 32.9907 26.0833 37.9478 39.6219 38.8877C53.1606 37.9478 60.0871 32.9907 69.5527 17.1001C70.0504 16.2646 71.3097 16.6175 71.3199 17.595C71.3201 17.6029 71.3201 17.6044 71.3199 17.6123C71.3167 17.864 71.1757 27.0161 68.394 33.3142C66.2333 38.2063 64.4079 41.3277 60.5915 44.9678Z" fill="#5655ED"/>
<path d="M125.55 8.05072H134.689V36.1691C134.689 39.3262 133.936 42.0888 132.43 44.4566C130.939 46.8245 128.849 48.6709 126.162 49.9957C123.475 51.3065 120.344 51.9619 116.77 51.9619C113.182 51.9619 110.044 51.3065 107.357 49.9957C104.669 48.6709 102.58 46.8245 101.088 44.4566C99.5968 42.0888 98.8511 39.3262 98.8511 36.1691V8.05072H107.99V35.3869C107.99 37.0359 108.349 38.5018 109.066 39.7843C109.798 41.067 110.825 42.0746 112.148 42.8076C113.47 43.5405 115.011 43.907 116.77 43.907C118.543 43.907 120.084 43.5405 121.392 42.8076C122.715 42.0746 123.735 41.067 124.452 39.7843C125.184 38.5018 125.55 37.0359 125.55 35.3869V8.05072ZM142.039 63.5264V18.8752H150.903V24.3298H151.304C151.698 23.456 152.268 22.568 153.014 21.6659C153.773 20.7498 154.759 19.9887 155.968 19.3826C157.192 18.7625 158.712 18.4524 160.528 18.4524C162.892 18.4524 165.072 19.0726 167.07 20.3128C169.069 21.5391 170.666 23.3926 171.861 25.8731C173.057 28.3396 173.656 31.4334 173.656 35.1543C173.656 38.7765 173.072 41.8351 171.904 44.3298C170.749 46.8105 169.174 48.6921 167.176 49.9746C165.192 51.2431 162.969 51.8773 160.506 51.8773C158.761 51.8773 157.277 51.5884 156.053 51.0105C154.843 50.4327 153.851 49.7068 153.077 48.833C152.304 47.9451 151.713 47.05 151.304 46.148H151.031V63.5264H142.039ZM150.84 35.112C150.84 37.043 151.108 38.7273 151.643 40.1649C152.176 41.6025 152.95 42.723 153.964 43.5264C154.977 44.3157 156.207 44.7104 157.657 44.7104C159.121 44.7104 160.359 44.3087 161.372 43.5052C162.385 42.6878 163.152 41.5602 163.672 40.1226C164.207 38.6709 164.474 37.0006 164.474 35.112C164.474 33.2374 164.214 31.5884 163.693 30.1648C163.173 28.7413 162.406 27.6279 161.393 26.8245C160.38 26.0212 159.134 25.6195 157.657 25.6195C156.194 25.6195 154.956 26.0071 153.943 26.7822C152.943 27.5575 152.176 28.6568 151.643 30.0803C151.108 31.5039 150.84 33.1812 150.84 35.112ZM188.64 8.05072V51.3488H179.649V8.05072H188.64ZM195.842 51.3488V18.8752H204.835V51.3488H195.842ZM200.359 14.6892C199.023 14.6892 197.876 14.2452 196.919 13.3573C195.976 12.4552 195.505 11.377 195.505 10.1226C195.505 8.88229 195.976 7.81816 196.919 6.93021C197.876 6.02817 199.023 5.57715 200.359 5.57715C201.697 5.57715 202.836 6.02817 203.778 6.93021C204.735 7.81816 205.214 8.88229 205.214 10.1226C205.214 11.377 204.735 12.4552 203.778 13.3573C202.836 14.2452 201.697 14.6892 200.359 14.6892ZM229.47 18.8752V25.6406H209.462V18.8752H229.47ZM214.041 51.3488V16.5285C214.041 14.1747 214.499 12.2227 215.414 10.6723C216.343 9.1219 217.608 7.95911 219.212 7.18391C220.816 6.40872 222.638 6.02112 224.678 6.02112C226.057 6.02112 227.317 6.12683 228.457 6.33824C229.61 6.54967 230.468 6.73994 231.032 6.90908L229.427 13.6744C229.076 13.5616 228.639 13.4559 228.119 13.3573C227.613 13.2586 227.091 13.2093 226.558 13.2093C225.234 13.2093 224.313 13.5194 223.793 14.1395C223.271 14.7456 223.011 15.5983 223.011 16.6977V51.3488H214.041ZM252.206 18.8752V25.6406H232.682V18.8752H252.206ZM237.115 11.0951H246.107V41.37C246.107 42.2016 246.233 42.8499 246.486 43.315C246.74 43.766 247.091 44.0832 247.541 44.2664C248.006 44.4496 248.541 44.5412 249.146 44.5412C249.568 44.5412 249.99 44.506 250.412 44.4355C250.834 44.3509 251.157 44.2875 251.383 44.2453L252.796 50.9471C252.346 51.0881 251.713 51.2501 250.897 51.4334C250.082 51.6307 249.089 51.7505 247.921 51.7928C245.755 51.8773 243.855 51.5884 242.223 50.926C240.605 50.2635 239.345 49.2346 238.445 47.8392C237.544 46.4439 237.101 44.6821 237.115 42.5539V11.0951ZM272.488 51.983C269.154 51.983 266.283 51.3065 263.878 49.9535C261.486 48.5862 259.642 46.6554 258.347 44.1607C257.053 41.6518 256.405 38.685 256.405 35.26C256.405 31.9196 257.053 28.988 258.347 26.465C259.642 23.9422 261.465 21.9761 263.814 20.5666C266.178 19.1571 268.95 18.4524 272.13 18.4524C274.268 18.4524 276.259 18.7977 278.103 19.4884C279.961 20.1649 281.579 21.1867 282.958 22.5539C284.35 23.9211 285.433 25.6406 286.207 27.7124C286.981 29.7703 287.368 32.1804 287.368 34.9429V37.4165H259.994V31.8351H278.904C278.904 30.5384 278.623 29.3897 278.06 28.389C277.497 27.3883 276.717 26.606 275.717 26.0423C274.733 25.4644 273.586 25.1755 272.277 25.1755C270.913 25.1755 269.702 25.4925 268.647 26.1269C267.606 26.7469 266.79 27.5856 266.199 28.6427C265.609 29.6857 265.306 30.8484 265.291 32.1311V37.4376C265.291 39.0444 265.587 40.4327 266.178 41.6025C266.783 42.7724 267.634 43.6745 268.732 44.3087C269.829 44.9429 271.13 45.26 272.637 45.26C273.635 45.26 274.551 45.1191 275.38 44.8372C276.21 44.5553 276.921 44.1324 277.512 43.5686C278.103 43.0049 278.554 42.3142 278.863 41.4968L287.179 42.0465C286.755 44.0479 285.891 45.7956 284.582 47.2896C283.287 48.7695 281.613 49.9253 279.559 50.7569C277.519 51.5743 275.161 51.983 272.488 51.983ZM293.235 51.3488V18.8752H301.953V24.5412H302.29C302.881 22.5257 303.872 21.0034 305.266 19.9747C306.658 18.9316 308.263 18.4101 310.079 18.4101C310.529 18.4101 311.013 18.4384 311.535 18.4946C312.055 18.551 312.513 18.6286 312.906 18.7273V26.7188C312.484 26.592 311.9 26.4792 311.155 26.3805C310.409 26.2818 309.727 26.2325 309.107 26.2325C307.785 26.2325 306.602 26.5214 305.562 27.0994C304.534 27.6632 303.718 28.4524 303.113 29.4672C302.522 30.482 302.226 31.6519 302.226 32.9767V51.3488H293.235Z" fill="white"/>
</svg>
